<svg xmlns="http://www.w3.org/2000/svg" xmlns:xlink="http://www.w3.org/1999/xlink" width="500" zoomAndPan="magnify" viewBox="0 0 375 374.999991" height="500" preserveAspectRatio="xMidYMid meet" version="1.0"><defs><g/></defs><g fill="#2d3859" fill-opacity="1"><g transform="translate(0.562504, 307.678182)"><g><path d="M 66.515625 3.25 C 55.578125 3.25 46.085938 1.238281 38.046875 -2.78125 C 30.003906 -6.800781 23.816406 -12.703125 19.484375 -20.484375 C 15.160156 -28.273438 13 -37.632812 13 -48.5625 C 13 -58.675781 15.160156 -67.160156 19.484375 -74.015625 C 23.816406 -80.867188 30.519531 -86.488281 39.59375 -90.875 C 48.664062 -95.257812 60.523438 -98.632812 75.171875 -101 C 85.378906 -102.65625 93.140625 -104.460938 98.453125 -106.421875 C 103.765625 -108.378906 107.347656 -110.59375 109.203125 -113.0625 C 111.054688 -115.539062 111.984375 -118.6875 111.984375 -122.5 C 111.984375 -127.96875 110.078125 -132.144531 106.265625 -135.03125 C 102.453125 -137.914062 96.109375 -139.359375 87.234375 -139.359375 C 77.753906 -139.359375 68.734375 -137.242188 60.171875 -133.015625 C 51.609375 -128.796875 44.179688 -123.226562 37.890625 -116.3125 L 34.796875 -116.3125 L 16.859375 -143.390625 C 25.523438 -152.972656 36.09375 -160.445312 48.5625 -165.8125 C 61.039062 -171.175781 74.65625 -173.859375 89.40625 -173.859375 C 111.988281 -173.859375 128.332031 -169.0625 138.4375 -159.46875 C 148.539062 -149.882812 153.59375 -136.273438 153.59375 -118.640625 L 153.59375 -44.546875 C 153.59375 -36.910156 156.945312 -33.09375 163.65625 -33.09375 C 166.226562 -33.09375 168.753906 -33.5625 171.234375 -34.5 L 173.390625 -33.875 L 176.484375 -4.015625 C 174.117188 -2.472656 170.820312 -1.210938 166.59375 -0.234375 C 162.363281 0.742188 157.722656 1.234375 152.671875 1.234375 C 142.460938 1.234375 134.492188 -0.722656 128.765625 -4.640625 C 123.046875 -8.554688 118.945312 -14.691406 116.46875 -23.046875 L 113.21875 -23.359375 C 104.875 -5.617188 89.304688 3.25 66.515625 3.25 Z M 80.125 -28.765625 C 90.019531 -28.765625 97.929688 -32.085938 103.859375 -38.734375 C 109.796875 -45.390625 112.765625 -54.648438 112.765625 -66.515625 L 112.765625 -83.828125 L 109.828125 -84.453125 C 107.242188 -82.390625 103.863281 -80.660156 99.6875 -79.265625 C 95.507812 -77.878906 89.503906 -76.515625 81.671875 -75.171875 C 72.390625 -73.628906 65.710938 -70.972656 61.640625 -67.203125 C 57.566406 -63.441406 55.53125 -58.109375 55.53125 -51.203125 C 55.53125 -43.878906 57.691406 -38.304688 62.015625 -34.484375 C 66.347656 -30.671875 72.382812 -28.765625 80.125 -28.765625 Z M 80.125 -28.765625 "/></g></g><g transform="translate(180.451277, 307.678182)"><g><path d="M 96.984375 3.25 C 79.035156 3.25 63.847656 0.46875 51.421875 -5.09375 C 39.003906 -10.664062 29.648438 -18.609375 23.359375 -28.921875 C 17.066406 -39.234375 13.921875 -51.453125 13.921875 -65.578125 C 13.921875 -78.679688 17.164062 -90.023438 23.65625 -99.609375 C 30.15625 -109.203125 39.644531 -116.734375 52.125 -122.203125 L 52.125 -125.4375 C 43.257812 -130.90625 36.476562 -137.398438 31.78125 -144.921875 C 27.09375 -152.453125 24.75 -161.273438 24.75 -171.390625 C 24.75 -182.828125 27.554688 -192.925781 33.171875 -201.6875 C 38.796875 -210.457031 47.046875 -217.265625 57.921875 -222.109375 C 68.804688 -226.960938 81.828125 -229.390625 96.984375 -229.390625 C 112.140625 -229.390625 125.128906 -226.960938 135.953125 -222.109375 C 146.785156 -217.265625 155.035156 -210.457031 160.703125 -201.6875 C 166.378906 -192.925781 169.21875 -182.828125 169.21875 -171.390625 C 169.21875 -161.273438 166.84375 -152.476562 162.09375 -145 C 157.351562 -137.53125 150.5 -131.007812 141.53125 -125.4375 L 141.53125 -122.203125 C 154.726562 -116.941406 164.421875 -109.460938 170.609375 -99.765625 C 176.796875 -90.078125 179.890625 -78.679688 179.890625 -65.578125 C 179.890625 -51.453125 176.742188 -39.234375 170.453125 -28.921875 C 164.160156 -18.609375 154.828125 -10.664062 142.453125 -5.09375 C 130.078125 0.46875 114.921875 3.25 96.984375 3.25 Z M 96.984375 -138.125 C 105.953125 -138.125 113.09375 -140.597656 118.40625 -145.546875 C 123.71875 -150.503906 126.375 -157.363281 126.375 -166.125 C 126.375 -174.988281 123.71875 -181.945312 118.40625 -187 C 113.09375 -192.050781 105.953125 -194.578125 96.984375 -194.578125 C 87.804688 -194.578125 80.585938 -192.078125 75.328125 -187.078125 C 70.066406 -182.078125 67.4375 -175.09375 67.4375 -166.125 C 67.4375 -157.257812 70.066406 -150.375 75.328125 -145.46875 C 80.585938 -140.570312 87.804688 -138.125 96.984375 -138.125 Z M 96.984375 -34.796875 C 109.046875 -34.796875 118.375 -37.8125 124.96875 -43.84375 C 131.570312 -49.882812 134.875 -58.265625 134.875 -68.984375 C 134.875 -79.710938 131.570312 -88.09375 124.96875 -94.125 C 118.375 -100.15625 109.046875 -103.171875 96.984375 -103.171875 C 84.816406 -103.171875 75.429688 -100.15625 68.828125 -94.125 C 62.234375 -88.09375 58.9375 -79.710938 58.9375 -68.984375 C 58.9375 -58.265625 62.234375 -49.882812 68.828125 -43.84375 C 75.429688 -37.8125 84.816406 -34.796875 96.984375 -34.796875 Z M 96.984375 -34.796875 "/></g></g></g></svg>